<svg width="8" height="8" viewBox="0 0 8 8" fill="none" xmlns="http://www.w3.org/2000/svg">
<path d="M8 3.99999C8 6.20913 6.20914 7.99999 4 7.99999C1.79086 7.99999 0 6.20913 0 3.99999C0 1.79085 1.79086 -1.31125e-05 4 -1.31125e-05C6.20914 -1.31125e-05 8 1.79085 8 3.99999Z" fill="black"/>
<path d="M8 3.99999C8 6.20913 6.20914 7.99999 4 7.99999C1.79086 7.99999 0 6.20913 0 3.99999C0 1.79085 1.79086 -1.31125e-05 4 -1.31125e-05C6.20914 -1.31125e-05 8 1.79085 8 3.99999Z" fill="black"/>
<path d="M8 3.99999C8 6.20913 6.20914 7.99999 4 7.99999C1.79086 7.99999 0 6.20913 0 3.99999C0 1.79085 1.79086 -1.31125e-05 4 -1.31125e-05C6.20914 -1.31125e-05 8 1.79085 8 3.99999Z" fill="black"/>
</svg>
