<svg width="53" height="53" viewBox="0 0 53 53" fill="none" xmlns="http://www.w3.org/2000/svg">
<path d="M26.4963 28.1438C19.5403 28.1438 13.8789 22.4824 13.8789 15.5264C13.8789 8.57032 19.5403 2.90894 26.4963 2.90894C33.4524 2.90894 39.1138 8.57032 39.1138 15.5264C39.1138 22.4824 33.4524 28.1438 26.4963 28.1438ZM26.4963 6.20044C21.3616 6.20044 17.1704 10.3916 17.1704 15.5264C17.1704 20.6611 21.3616 24.8523 26.4963 24.8523C31.6311 24.8523 35.8223 20.6611 35.8223 15.5264C35.8223 10.3916 31.6311 6.20044 26.4963 6.20044Z" fill="#292D32"/>
<path d="M45.3464 50.0872C44.4467 50.0872 43.7006 49.3411 43.7006 48.4414C43.7006 40.8709 35.9766 34.7268 26.497 34.7268C17.0175 34.7268 9.29346 40.8709 9.29346 48.4414C9.29346 49.3411 8.54738 50.0872 7.64771 50.0872C6.74803 50.0872 6.00195 49.3411 6.00195 48.4414C6.00195 39.0716 15.1962 31.4353 26.497 31.4353C37.7979 31.4353 46.9921 39.0716 46.9921 48.4414C46.9921 49.3411 46.2461 50.0872 45.3464 50.0872Z" fill="#292D32"/>
</svg>
